<?xml version="1.0" standalone="no"?>
<!DOCTYPE svg PUBLIC "-//W3C//DTD SVG 20010904//EN"
 "http://www.w3.org/TR/2001/REC-SVG-20010904/DTD/svg10.dtd">
<svg version="1.0" xmlns="http://www.w3.org/2000/svg"
 width="300.000000pt" height="300.000000pt" viewBox="0 0 300.000000 300.000000"
 preserveAspectRatio="xMidYMid meet">
<metadata>
Created by potrace 1.14, written by Peter Selinger 2001-2017
</metadata>
<g transform="translate(0.000000,300.000000) scale(0.100000,-0.100000)"
fill="#000000" stroke="none">
<path d="M0 1500 l0 -1500 1500 0 1500 0 0 1500 0 1500 -1500 0 -1500 0 0
-1500z m935 1250 c9 -27 20 -50 25 -50 4 0 26 7 49 15 l42 15 14 -33 c7 -17
37 -116 65 -219 48 -169 55 -188 74 -188 12 0 76 15 141 34 66 18 123 32 126
30 4 -2 9 -22 13 -44 3 -22 13 -43 21 -46 8 -4 80 12 159 35 79 23 151 41 160
41 10 0 20 -15 27 -46 7 -25 17 -48 23 -50 6 -2 56 9 110 25 55 17 103 28 106
26 4 -3 13 -25 19 -49 6 -25 15 -47 20 -50 5 -3 28 1 51 9 50 18 56 15 65 -28
14 -65 18 -67 75 -49 27 9 51 14 53 11 2 -2 50 -165 106 -362 57 -198 111
-383 121 -413 21 -61 19 -64 -47 -79 -18 -3 -35 -10 -38 -15 -2 -4 16 -79 40
-166 25 -87 42 -161 38 -164 -5 -4 -27 -12 -50 -19 -24 -6 -43 -16 -43 -22 0
-5 18 -75 41 -154 22 -80 39 -152 37 -161 -2 -13 -132 -54 -553 -176 -551
-159 -615 -176 -615 -164 0 3 -20 76 -45 163 -25 86 -44 157 -42 159 1 1 26 9
55 18 40 11 54 12 56 3 38 -135 60 -207 63 -207 16 0 928 262 935 269 4 4 -6
53 -22 110 -17 57 -28 107 -24 110 3 3 26 13 52 21 56 18 56 10 1 202 -21 76
-39 140 -39 142 0 3 20 11 45 17 25 6 47 15 50 19 6 9 -34 173 -86 354 -65
229 -140 470 -148 479 -4 4 -28 1 -54 -7 -44 -13 -48 -13 -57 4 -6 10 -10 23
-10 29 0 5 -4 21 -10 35 l-9 25 -53 -15 c-29 -9 -55 -18 -57 -20 -2 -2 15 -70
39 -151 23 -82 45 -155 47 -164 3 -12 -8 -21 -43 -33 -26 -9 -49 -14 -51 -12
-3 2 -20 57 -39 123 -72 241 -95 313 -102 313 -4 0 -52 -13 -107 -29 l-100
-28 3 -41 c1 -23 18 -91 37 -152 19 -62 35 -120 35 -130 0 -13 -12 -21 -44
-29 -63 -15 -63 -15 -71 27 -9 51 -92 334 -106 366 -15 33 -28 33 -164 -8
l-110 -33 2 -39 c1 -22 25 -115 52 -209 28 -93 51 -177 51 -187 0 -16 -51 -38
-87 -38 -14 0 -9 -16 -174 555 -66 231 -123 423 -126 427 -2 5 -12 8 -21 8
-14 0 -190 -49 -200 -56 -5 -3 80 -314 185 -679 198 -688 233 -809 233 -821 0
-15 -99 -40 -109 -28 -5 5 -20 54 -35 109 -40 148 -78 265 -86 265 -4 0 -27
-7 -50 -15 -24 -8 -44 -14 -45 -13 -1 2 -10 27 -20 56 -20 61 -7 60 -152 16
-46 -13 -83 -28 -83 -32 0 -10 71 -255 76 -264 2 -4 27 0 54 8 28 8 54 13 59
10 5 -3 14 -26 20 -51 12 -49 23 -54 81 -34 40 14 41 13 70 -100 13 -47 27
-90 32 -96 5 -6 25 -4 55 3 59 16 62 13 93 -105 12 -49 26 -91 29 -96 4 -4 29
-1 56 8 27 8 53 11 56 7 8 -9 59 -185 59 -205 0 -12 -97 -43 -106 -34 -2 2
-17 47 -33 101 -15 53 -31 100 -35 103 -4 4 -27 1 -53 -5 -25 -7 -48 -10 -51
-8 -2 3 -18 49 -34 103 -16 54 -33 102 -38 107 -5 5 -27 2 -53 -7 l-46 -15
-14 36 c-8 21 -23 70 -32 110 -10 39 -19 72 -20 72 -1 0 -25 -7 -53 -15 -29
-9 -56 -14 -61 -11 -5 3 -14 26 -20 50 -6 25 -15 47 -20 50 -8 5 -45 -3 -82
-18 -10 -5 -19 1 -26 17 -14 30 -103 341 -103 359 0 8 56 29 153 56 83 23 157
42 164 42 6 0 16 -23 23 -50 7 -28 15 -52 19 -54 11 -6 101 24 101 34 0 15
-55 213 -140 505 -119 410 -141 495 -127 500 7 2 31 9 55 15 46 12 49 19 28
78 l-15 41 42 15 c66 24 140 45 164 45 17 1 25 -9 38 -49z"/>
</g>
</svg>
